<?xml version="1.0" encoding="utf-8"?>
<!-- Generator: Adobe Illustrator 16.0.0, SVG Export Plug-In . SVG Version: 6.00 Build 0)  -->
<!DOCTYPE svg PUBLIC "-//W3C//DTD SVG 1.1//EN" "http://www.w3.org/Graphics/SVG/1.1/DTD/svg11.dtd">
<svg version="1.1" xmlns="http://www.w3.org/2000/svg" xmlns:xlink="http://www.w3.org/1999/xlink" x="0px" y="0px" width="500px"
	 height="500px" viewBox="-183.5 -215 500 500" enable-background="new -183.5 -215 500 500" xml:space="preserve">
<g id="Layer_1">
	<linearGradient id="SVGID_1_" gradientUnits="userSpaceOnUse" x1="-183.5" y1="35.75" x2="316.5" y2="35.75">
		<stop  offset="0" style="stop-color:#8F9194"/>
		<stop  offset="0.0107" style="stop-color:#8C8E91"/>
		<stop  offset="0.1094" style="stop-color:#76787A"/>
		<stop  offset="0.2158" style="stop-color:#66686A"/>
		<stop  offset="0.3342" style="stop-color:#5D5E60"/>
		<stop  offset="0.4888" style="stop-color:#5A5B5D"/>
		<stop  offset="0.7136" style="stop-color:#57585A"/>
		<stop  offset="0.8859" style="stop-color:#4E4E50"/>
		<stop  offset="1" style="stop-color:#434345"/>
	</linearGradient>
	<rect x="-183.5" y="-215" fill="url(#SVGID_1_)" width="500" height="501.5"/>
</g>
<g id="Layer_3">
	<g>
		<path fill="#FFFFFF" d="M-63.837,164.269l-1.096,5.653h8.889l-1.096,5.618h-8.872l-2.192,11.255h-5.792l5.479-28.146h16.229
			l-1.096,5.619H-63.837z"/>
		<path fill="#FFFFFF" d="M-53.609,172.792c1.235-8.732,8.176-14.891,16.073-14.49c7.532,0.383,12.02,6.506,10.819,14.716
			c-1.27,8.698-8.228,14.769-16.09,14.369C-50.252,187.004-54.774,180.985-53.609,172.792z M-32.509,172.914
			c0.887-5.114-1.896-8.924-6.071-8.994c-4.245-0.087-8.367,3.74-9.237,8.89c-0.853,4.992,1.774,8.837,6.036,8.924
			C-37.396,181.837-33.378,177.906-32.509,172.914z"/>
		<path fill="#FFFFFF" d="M-23.846,175.871l3.34-17.152h5.792l-3.323,17.135c-0.661,3.427,0.957,5.81,3.74,5.81
			c2.662,0,4.714-2.104,5.427-5.81l3.322-17.135h5.793l-3.323,17.152c-1.426,7.341-6.245,11.498-12.125,11.498
			C-21.48,187.369-25.116,182.429-23.846,175.871z"/>
		<path fill="#FFFFFF" d="M26.53,158.649l-5.566,28.633h-0.504L8.231,171.157l-3.027,15.638h-5.775l5.566-28.598h0.522
			l12.194,16.073l3.044-15.621H26.53z"/>
		<path fill="#FFFFFF" d="M50.832,172.774c-1.74,13.985-14.629,13.985-16.751,13.985h-8.124l5.444-28.023l8.124-0.018
			C44.987,158.702,52.171,162.042,50.832,172.774z M38.394,164.303h-2.279l-3.271,16.839h2.331c5.358,0,9.045-3.305,9.776-8.402
			C45.752,167.139,42.308,164.303,38.394,164.303z"/>
		<path fill="#FFFFFF" d="M61.982,164.269l-1.062,5.479h8.873l-1.097,5.618h-8.872l-1.113,5.793h10.437l-1.096,5.601h-16.23
			l5.445-28.041h16.229l-1.079,5.55H61.982z"/>
		<path fill="#FFFFFF" d="M87.413,175.593l5.497,11.167h-6.419l-5.932-13.115l-2.54,13.115h-5.792l5.427-28.041h8.28
			c4.401,0,8.854,3.097,7.915,9.081C93.258,171.539,90.84,174.549,87.413,175.593z M84.96,164.303h-2.592l-1.374,7.045l2.592,0.018
			c2.418,0.018,4.262-1.461,4.558-3.514C88.439,165.765,86.943,164.303,84.96,164.303z"/>
		<path fill="#FFFFFF" d="M95.224,181.193l4.575-3.131c1.339,2.4,3.34,3.584,5.427,3.584c1.618,0,3.601-0.853,3.914-2.593
			c0.4-2.313-2.609-3.966-4.575-5.184c-2.714-1.688-5.514-4.001-4.558-8.767c0.835-4.157,4.889-6.976,9.567-6.976
			c3.758,0,6.715,2.244,7.445,5.148l-4.558,3.114c-0.47-1.757-2.053-2.731-3.67-2.731c-1.688,0-3.027,1.235-3.235,2.627
			c-0.313,1.983,1.861,2.87,4.104,4.227c4.401,2.662,5.897,5.323,5.201,8.907c-0.869,4.557-4.818,7.896-10.419,7.896
			C99.799,187.316,96.459,184.742,95.224,181.193z"/>
		<path fill="#FFFFFF" d="M132.745,158.719h8.924c5.148,0,8.976,3.602,8.123,9.638c-0.783,5.566-4.992,9.289-11.794,9.289h-3.131
			l-1.774,9.114H127.3L132.745,158.719z M144.243,168.321c0.33-2.522-1.357-4.019-3.653-4.019h-3.131l-1.514,7.759l3.131,0.018
			C142.19,172.079,143.93,170.601,144.243,168.321z"/>
		<path fill="#FFFFFF" d="M162.978,182.847h-10.211l-2.278,3.913h-6.732l18.091-28.736h0.922l6.94,28.736h-5.879L162.978,182.847z
			 M161.916,178.045l-1.722-7.897l-4.609,7.897H161.916z"/>
		<path fill="#FFFFFF" d="M171.31,181.193l4.575-3.131c1.34,2.4,3.34,3.584,5.428,3.584c1.617,0,3.601-0.853,3.913-2.593
			c0.4-2.313-2.609-3.966-4.574-5.184c-2.714-1.688-5.515-4.001-4.558-8.767c0.835-4.157,4.888-6.976,9.567-6.976
			c3.757,0,6.714,2.244,7.444,5.148l-4.557,3.114c-0.47-1.757-2.053-2.731-3.671-2.731c-1.688,0-3.026,1.235-3.235,2.627
			c-0.313,1.983,1.861,2.87,4.105,4.227c4.4,2.662,5.896,5.323,5.201,8.907c-0.87,4.557-4.818,7.896-10.42,7.896
			C175.885,187.316,172.545,184.742,171.31,181.193z"/>
		<path fill="#FFFFFF" d="M192.566,181.193l4.575-3.131c1.34,2.4,3.34,3.584,5.428,3.584c1.617,0,3.601-0.853,3.913-2.593
			c0.4-2.313-2.609-3.966-4.574-5.184c-2.714-1.688-5.515-4.001-4.558-8.767c0.835-4.157,4.888-6.976,9.567-6.976
			c3.757,0,6.714,2.244,7.444,5.148l-4.557,3.114c-0.47-1.757-2.053-2.731-3.671-2.731c-1.688,0-3.026,1.235-3.235,2.627
			c-0.313,1.983,1.861,2.87,4.105,4.227c4.4,2.662,5.896,5.323,5.201,8.907c-0.87,4.557-4.818,7.896-10.42,7.896
			C197.142,187.316,193.802,184.742,192.566,181.193z"/>
	</g>
</g>
<g id="Layer_2">
	<g>
		<defs>
			<rect id="SVGID_2_" x="-141.712" y="-74.832" width="416.424" height="199.608"/>
		</defs>
		<clipPath id="SVGID_3_">
			<use xlink:href="#SVGID_2_"  overflow="visible"/>
		</clipPath>
		<g clip-path="url(#SVGID_3_)">
			<path fill="#FFFFFF" d="M-23.171,44.129V-66.678c0.013-0.192-0.019-0.386-0.093-0.564c-0.074-0.178-0.19-0.336-0.335-0.46
				c-0.147-0.126-0.321-0.215-0.507-0.261c-0.187-0.043-0.382-0.045-0.57,0c-7.803,1.154-15.604,2.494-23.407,4.02
				c-0.413,0.088-0.786,0.312-1.061,0.636c-0.272,0.323-0.428,0.729-0.445,1.152v37.699c-12.855-10.462-25.655-20.459-38.398-29.992
				c-0.164-0.083-0.346-0.126-0.529-0.126c-0.185,0-0.366,0.043-0.529,0.126c-10.422,2.792-20.788,5.585-31.097,9.16
				c-0.295,0.093-0.563,0.252-0.785,0.466c-0.222,0.211-0.392,0.474-0.498,0.762c-0.151,0.224-0.231,0.486-0.231,0.755
				c0,0.269,0.08,0.533,0.231,0.755l7.857,8.432v99.025c-0.012,0.178,0.021,0.355,0.097,0.521c0.075,0.165,0.19,0.307,0.335,0.41
				c0.145,0.103,0.314,0.171,0.493,0.198c0.178,0.021,0.358-0.004,0.523-0.07c7.637-2.344,15.272-4.524,22.962-6.591
				c0.418-0.114,0.789-0.363,1.06-0.706c0.271-0.339,0.425-0.756,0.445-1.19V-8.707C-75.057,0.789-62.408,10.673-49.7,20.951v27.923
				c-0.005,0.188,0.035,0.377,0.111,0.544c0.08,0.172,0.195,0.323,0.341,0.441c0.145,0.117,0.314,0.205,0.498,0.246
				c0.183,0.039,0.373,0.039,0.556,0c7.803-1.527,15.604-2.868,23.406-4.021c0.467-0.06,0.896-0.292,1.197-0.655
				C-23.291,45.063-23.139,44.6-23.171,44.129z M-100.471,55.019l-6.577,1.956l3.289-4.355l3.288-4.249l3.289,2.403l3.288,2.402
				L-100.471,55.019z M-36.324,40.385l-6.688,1.173l3.344-3.909l3.345-3.966l3.344,2.794l3.4,2.793L-36.324,40.385z"/>
			<path fill="#FFFFFF" d="M14.28-3.844v43.449c-0.01,0.195,0.023,0.39,0.096,0.57c0.075,0.178,0.189,0.337,0.334,0.469
				c0.144,0.13,0.316,0.225,0.503,0.275c0.188,0.053,0.381,0.063,0.574,0.029c7.912-0.615,15.769-1.119,23.63-1.51
				c0.413,0,0.81-0.163,1.103-0.459c0.292-0.292,0.456-0.689,0.456-1.103V-5.52c10.81-22.713,21.659-45.052,32.549-67.021
				c0.121-0.221,0.184-0.472,0.184-0.726c0-0.253-0.063-0.501-0.184-0.726c-0.128-0.224-0.316-0.409-0.545-0.537
				c-0.221-0.128-0.477-0.193-0.738-0.188c-8.806,0-17.666,0-26.472,0.336c-0.289,0.014-0.57,0.105-0.814,0.262
				c-0.245,0.156-0.444,0.373-0.58,0.631L27.657-38.137c-5.573-11.17-11.146-22.339-16.721-33.509
				c-0.13-0.247-0.335-0.449-0.583-0.578c-0.247-0.13-0.53-0.182-0.809-0.148C0.738-71.534-8.009-70.528-16.818-69.3
				c-0.267,0.038-0.524,0.138-0.746,0.294c-0.224,0.155-0.407,0.359-0.535,0.6c-0.123,0.222-0.186,0.472-0.186,0.726
				c0,0.253,0.063,0.503,0.186,0.726C-7.324-46.104,3.469-25.066,14.28-3.844z M24.258,29.668l3.343-3.577
				c1.169,1.007,2.286,2.067,3.4,3.13l3.399,3.125l-6.8,0.393l-6.743,0.502C22.141,32.124,23.087,30.951,24.258,29.668z"/>
			<path fill="#FFFFFF" d="M123.85,41.673c8.19,0.782,16.381,1.729,24.521,2.845c0.226,0.038,0.457,0.014,0.673-0.06
				c0.211-0.081,0.403-0.212,0.55-0.383c0.103-0.202,0.151-0.423,0.151-0.646s-0.049-0.443-0.151-0.641
				C139.417,4.476,129.2-33.615,118.943-71.481c-0.087-0.328-0.277-0.62-0.532-0.84c-0.262-0.219-0.577-0.354-0.918-0.388
				c-9.193-0.726-18.332-1.342-27.527-1.676c-0.33-0.023-0.656,0.07-0.922,0.266c-0.262,0.195-0.449,0.476-0.531,0.796
				C78.259-36.797,68.006,0.008,57.749,37.092c-0.108,0.208-0.162,0.437-0.162,0.672c0,0.231,0.054,0.464,0.162,0.668
				c0.137,0.182,0.316,0.327,0.517,0.424c0.207,0.099,0.431,0.145,0.655,0.135c8.249,0,16.721,0,24.69,0
				c0.325,0.01,0.645-0.084,0.908-0.279c0.265-0.191,0.453-0.467,0.541-0.779c6.129-22.344,12.26-44.478,18.391-66.407
				c6.129,22.786,12.26,45.685,18.389,68.696c0.027,0.23,0.102,0.453,0.22,0.654c0.117,0.201,0.28,0.377,0.467,0.516
				c0.188,0.137,0.403,0.23,0.632,0.278C123.387,41.719,123.622,41.719,123.85,41.673z M131.091,31.73l3.399-2.961l3.401,3.744
				l3.345,3.74l-6.746-0.836l-6.462-0.727L131.091,31.73z M73.466,31.73h-6.744l3.402-3.35l3.342-3.298l3.4,3.407
				c1.169,1.118,2.283,2.235,3.4,3.404L73.466,31.73z"/>
			<path fill="#FFFFFF" d="M219.65,57.084c0.02,0.428,0.172,0.834,0.431,1.173c0.259,0.341,0.616,0.593,1.02,0.728
				c7.746,2.009,15.377,4.187,23.013,6.533c0.169,0.067,0.351,0.09,0.526,0.067c0.181-0.021,0.349-0.088,0.49-0.194
				c0.147-0.109,0.262-0.25,0.34-0.411c0.077-0.165,0.106-0.343,0.096-0.524v-97.848l8.692-9.327
				c0.155-0.221,0.231-0.485,0.231-0.754c0-0.27-0.076-0.531-0.231-0.755c-0.106-0.289-0.274-0.549-0.498-0.763
				c-0.222-0.213-0.491-0.374-0.787-0.466c-10.586-3.461-21.227-6.534-31.988-9.381c-0.17-0.055-0.349-0.067-0.53-0.036
				c-0.175,0.032-0.336,0.104-0.483,0.215c-0.142,0.109-0.256,0.252-0.329,0.414c-0.075,0.164-0.112,0.343-0.105,0.522v37.698
				c-12.78-16.27-25.579-32.094-38.397-47.472c-0.265-0.327-0.642-0.545-1.059-0.613c-7.8-1.509-15.604-2.849-23.462-4.021
				c-0.188-0.034-0.376-0.026-0.558,0.024c-0.186,0.049-0.354,0.138-0.498,0.26c-0.141,0.124-0.259,0.278-0.336,0.449
				c-0.078,0.173-0.116,0.361-0.114,0.549V43.961c0.008,0.416,0.163,0.82,0.436,1.139c0.276,0.316,0.653,0.529,1.07,0.592
				c7.837,1.152,15.641,2.494,23.404,4.023c0.186,0.04,0.376,0.04,0.559,0c0.182-0.044,0.35-0.128,0.496-0.245
				c0.146-0.118,0.263-0.269,0.342-0.44c0.076-0.172,0.117-0.356,0.11-0.545v-66.015c12.743,15.228,25.415,30.866,38.007,46.914
				L219.65,57.084z M229.347,50.494l3.287-2.399c1.116,1.452,2.229,2.847,3.285,4.298c1.063,1.452,2.235,2.848,3.294,4.299
				l-6.579-1.895l-6.573-1.846L229.347,50.494z M168.489,40.217l-6.743-1.063l3.341-2.846l3.402-2.736l3.343,3.909l3.345,3.966
				L168.489,40.217z"/>
			<path fill="#FFFFFF" d="M-10.241,83.559h-8.026V72.555h-10.477v31.166h10.477V92.717h8.026v11.004H0.237V72.555h-10.478V83.559z"
				/>
			<path fill="#FFFFFF" d="M15.394,92.324h13.152v-8.322H15.394v-3.125h14.38v-8.322H4.916v31.166h25.078v-8.321H15.394V92.324z"/>
			<path fill="#FFFFFF" d="M59.033,91.881c0.88-0.565,1.669-1.265,2.342-2.064c0.698-0.826,1.245-1.773,1.617-2.793
				c0.369-1.173,0.556-2.399,0.556-3.633c0.089-1.916-0.275-3.831-1.063-5.582c-0.691-1.349-1.733-2.484-3.007-3.297
				c-1.417-0.854-2.987-1.426-4.628-1.674c-1.948-0.35-3.925-0.518-5.904-0.504H34.122v31.108h10.309v-9.438h2.286l6.854,9.438
				h11.76l-8.194-11.17L59.033,91.881z M44.599,80.712h4.291c0.555-0.058,1.118-0.058,1.673,0c0.402,0.104,0.801,0.253,1.17,0.446
				c0.294,0.213,0.527,0.501,0.668,0.838c0.184,0.387,0.279,0.803,0.279,1.23c0.007,0.426-0.092,0.846-0.279,1.226
				c-0.142,0.337-0.375,0.629-0.668,0.841c-0.358,0.232-0.754,0.403-1.17,0.501H48.89h-4.459L44.599,80.712z"/>
			<path fill="#FFFFFF" d="M98.71,79.371c-0.694-1.209-1.58-2.303-2.615-3.24c-1.018-0.954-2.162-1.762-3.4-2.399
				c-1.334-0.642-2.734-1.128-4.182-1.452c-1.572-0.342-3.178-0.512-4.791-0.504c-2.387-0.02-4.759,0.356-7.024,1.115
				c-2.062,0.68-3.959,1.781-5.572,3.24c-1.524,1.438-2.722,3.193-3.509,5.143c-0.854,2.164-1.271,4.482-1.227,6.809
				c-0.021,1.6,0.164,3.201,0.555,4.749c0.355,1.408,0.9,2.76,1.619,4.023c0.691,1.18,1.557,2.252,2.562,3.182
				c1.034,0.959,2.196,1.765,3.454,2.403c1.311,0.649,2.697,1.137,4.128,1.452c1.593,0.339,3.219,0.507,4.847,0.501
				c2.372,0.043,4.729-0.336,6.966-1.119c2.081-0.639,3.986-1.747,5.575-3.237c1.527-1.438,2.725-3.188,3.511-5.138
				c0.88-2.164,1.313-4.479,1.283-6.816c-0.007-1.579-0.196-3.152-0.558-4.691C99.972,81.986,99.431,80.635,98.71,79.371z
				 M89.966,88.139c0.087,0.838,0.087,1.678,0,2.514c-0.134,0.689-0.337,1.365-0.615,2.011c-0.256,0.568-0.594,1.096-1.005,1.563
				c-0.357,0.43-0.794,0.79-1.282,1.062c-0.465,0.29-0.977,0.518-1.5,0.673c-0.538,0.057-1.082,0.057-1.621,0h-1.669
				c-0.521-0.175-1.026-0.403-1.507-0.673c-0.477-0.284-0.91-0.644-1.279-1.062c-0.373-0.483-0.693-1.009-0.948-1.563
				c-0.307-0.638-0.531-1.313-0.669-2.011c-0.094-0.836-0.094-1.676,0-2.514c-0.088-0.836-0.088-1.677,0-2.51
				c0.154-0.692,0.379-1.365,0.669-2.014c0.255-0.555,0.575-1.078,0.948-1.563c0.386-0.399,0.816-0.756,1.279-1.063
				c0.973-0.543,2.066-0.833,3.176-0.836c0.539-0.084,1.083-0.084,1.621,0c0.531,0.11,1.041,0.318,1.5,0.614
				c0.477,0.289,0.91,0.649,1.282,1.063c0.411,0.468,0.749,0.995,1.005,1.56c0.271,0.651,0.475,1.324,0.615,2.014
				c0.087,0.836,0.087,1.676,0,2.513V88.139z"/>
			<path fill="#FFFFFF" d="M114.983,92.324h13.155v-8.322h-13.155v-3.125h14.381v-8.322h-24.855v31.166h25.078v-8.321h-14.604
				V92.324z"/>
			<path fill="#FFFFFF" d="M159.011,87.631c-0.914-0.869-1.97-1.585-3.118-2.119c-1.533-0.663-3.146-1.13-4.792-1.396l-4.905-0.893
				c-0.438-0.066-0.869-0.178-1.279-0.336l-0.894-0.504c-0.213-0.162-0.384-0.37-0.502-0.612c-0.057-0.243-0.057-0.491,0-0.726
				c-0.029-0.189-0.029-0.377,0-0.559c0.091-0.182,0.205-0.349,0.334-0.503l0.445-0.337c0.206-0.128,0.435-0.222,0.67-0.279
				c0.256-0.057,0.523-0.057,0.78,0h0.946c0.464-0.057,0.931-0.057,1.392,0c0.403,0.088,0.783,0.26,1.115,0.502
				c0.33,0.221,0.617,0.507,0.838,0.84c0.231,0.34,0.403,0.719,0.501,1.115h10.59c-0.245-1.459-0.715-2.873-1.395-4.188
				c-0.692-1.23-1.62-2.313-2.73-3.186c-1.262-0.908-2.681-1.59-4.18-2.01c-1.814-0.504-3.689-0.747-5.572-0.727
				c-1.312-0.007-2.615,0.107-3.901,0.336c-1.168,0.191-2.304,0.511-3.399,0.947c-0.979,0.385-1.915,0.871-2.789,1.453
				c-0.767,0.564-1.458,1.223-2.06,1.955c-0.541,0.744-0.991,1.549-1.338,2.403c-0.286,0.904-0.439,1.845-0.446,2.793
				c-0.014,1.26,0.215,2.51,0.668,3.685c0.461,1.102,1.143,2.089,2.006,2.902c0.907,0.873,1.967,1.574,3.12,2.07
				c1.352,0.607,2.776,1.039,4.238,1.285l4.849,0.893c0.588,0.088,1.169,0.236,1.728,0.443l1.171,0.505
				c0.247,0.181,0.457,0.406,0.61,0.673c0.061,0.274,0.061,0.558,0,0.836c0.051,0.183,0.051,0.374,0,0.559
				c0.021,0.164,0.021,0.335,0,0.5c-0.157,0.182-0.347,0.329-0.557,0.451l-0.724,0.274h-0.948h-1.059
				c-0.574,0.067-1.152,0.067-1.728,0c-0.474-0.135-0.928-0.343-1.338-0.611c-0.369-0.259-0.688-0.581-0.946-0.951
				c-0.276-0.403-0.465-0.856-0.558-1.341h-10.533c0.16,1.449,0.597,2.85,1.283,4.134c0.712,1.28,1.681,2.402,2.84,3.294
				c1.361,1.009,2.889,1.769,4.513,2.239c2.052,0.569,4.177,0.832,6.299,0.779c1.337,0.12,2.679,0.12,4.013,0
				c1.181-0.21,2.337-0.528,3.455-0.948c1.015-0.37,1.97-0.873,2.844-1.51c0.799-0.588,1.512-1.283,2.118-2.065
				c0.57-0.781,1-1.648,1.283-2.568c0.315-0.975,0.467-1.996,0.444-3.019c0.018-1.207-0.21-2.402-0.669-3.519
				C161.089,89.399,160.155,88.381,159.011,87.631z"/>
			<path fill="#FFFFFF" d="M-60.065,96.18l-1.169-2.236h-1.84l-45.365,18.095L-61.568,98.3L-60.065,96.18z"/>
			<path fill="#FFFFFF" d="M-56.833,105.396l-18.948,19.38l20.452-15.023l1.506-2.12l-1.171-2.236H-56.833z"/>
			<path fill="#FFFFFF" d="M-66.196,85.236L-67.366,83h-1.84l-72.506,4.86l74.011-0.505L-66.196,85.236z"/>
			<path fill="#FFFFFF" d="M194.29,93.943l-1.17,2.236l1.502,2.12l46.871,13.738l-45.365-18.095H194.29z"/>
			<path fill="#FFFFFF" d="M187.991,105.396l-1.112,2.236l1.506,2.12l20.398,15.023l-18.95-19.38H187.991z"/>
			<path fill="#FFFFFF" d="M200.369,83l-1.169,2.236l1.502,2.119l74.01,0.505L202.203,83H200.369z"/>
		</g>
	</g>
</g>
</svg>
